<mxfile host="app.diagrams.net" modified="2020-12-17T10:00:16.310Z" agent="5.0 (Macintosh; Intel Mac OS X 10_15_7) AppleWebKit/537.36 (KHTML, like Gecko) Chrome/87.0.4280.88 Safari/537.36" etag="yfnh-atPoCQtezrfgv__" version="14.0.1" type="github">
  <diagram id="kgpKYQtTHZ0yAKxKKP6v" name="Page-1">
    <mxGraphModel dx="946" dy="591" grid="1" gridSize="10" guides="1" tooltips="1" connect="1" arrows="1" fold="1" page="1" pageScale="1" pageWidth="850" pageHeight="1100" math="0" shadow="0">
      <root>
        <mxCell id="0" />
        <mxCell id="1" parent="0" />
        <mxCell id="3nuBFxr9cyL0pnOWT2aG-1" value="暴露API" style="shape=umlLifeline;perimeter=lifelinePerimeter;container=1;collapsible=0;recursiveResize=0;rounded=0;shadow=0;strokeWidth=1;" parent="1" vertex="1">
          <mxGeometry x="120" y="80" width="100" height="350" as="geometry" />
        </mxCell>
        <mxCell id="3nuBFxr9cyL0pnOWT2aG-5" value="sdk内部" style="shape=umlLifeline;perimeter=lifelinePerimeter;container=1;collapsible=0;recursiveResize=0;rounded=0;shadow=0;strokeWidth=1;" parent="1" vertex="1">
          <mxGeometry x="410" y="80" width="100" height="360" as="geometry" />
        </mxCell>
        <mxCell id="3nuBFxr9cyL0pnOWT2aG-6" value="" style="points=[];perimeter=orthogonalPerimeter;rounded=0;shadow=0;strokeWidth=1;" parent="3nuBFxr9cyL0pnOWT2aG-5" vertex="1">
          <mxGeometry x="45" y="80" width="10" height="250" as="geometry" />
        </mxCell>
        <mxCell id="3nuBFxr9cyL0pnOWT2aG-7" value="return" style="verticalAlign=bottom;endArrow=open;dashed=1;endSize=8;exitX=0;exitY=0.95;shadow=0;strokeWidth=1;" parent="1" edge="1">
          <mxGeometry relative="1" as="geometry">
            <mxPoint x="170" y="399.9999999999998" as="targetPoint" />
            <mxPoint x="450" y="399.9999999999998" as="sourcePoint" />
          </mxGeometry>
        </mxCell>
        <mxCell id="3nuBFxr9cyL0pnOWT2aG-8" value="AgoraRTCClient.enableDualStream" style="verticalAlign=bottom;endArrow=block;entryX=0;entryY=0;shadow=0;strokeWidth=1;" parent="1" edge="1">
          <mxGeometry relative="1" as="geometry">
            <mxPoint x="175" y="175.0000000000001" as="sourcePoint" />
            <mxPoint x="455" y="175.0000000000001" as="targetPoint" />
            <Array as="points">
              <mxPoint x="350" y="175" />
            </Array>
          </mxGeometry>
        </mxCell>
        <mxCell id="9KfQvFGsd-rIjOBCiYMB-1" value="WebRTC API/ Web API" style="shape=umlLifeline;perimeter=lifelinePerimeter;container=1;collapsible=0;recursiveResize=0;rounded=0;shadow=0;strokeWidth=1;" vertex="1" parent="1">
          <mxGeometry x="700" y="80" width="140" height="370" as="geometry" />
        </mxCell>
        <mxCell id="9KfQvFGsd-rIjOBCiYMB-2" value="" style="points=[];perimeter=orthogonalPerimeter;rounded=0;shadow=0;strokeWidth=1;" vertex="1" parent="9KfQvFGsd-rIjOBCiYMB-1">
          <mxGeometry x="65" y="80" width="10" height="80" as="geometry" />
        </mxCell>
        <mxCell id="9KfQvFGsd-rIjOBCiYMB-16" value="" style="points=[];perimeter=orthogonalPerimeter;rounded=0;shadow=0;strokeWidth=1;" vertex="1" parent="9KfQvFGsd-rIjOBCiYMB-1">
          <mxGeometry x="65" y="170" width="10" height="70" as="geometry" />
        </mxCell>
        <mxCell id="9KfQvFGsd-rIjOBCiYMB-19" value="" style="points=[];perimeter=orthogonalPerimeter;rounded=0;shadow=0;strokeWidth=1;" vertex="1" parent="9KfQvFGsd-rIjOBCiYMB-1">
          <mxGeometry x="65" y="250" width="10" height="70" as="geometry" />
        </mxCell>
        <mxCell id="9KfQvFGsd-rIjOBCiYMB-3" value="" style="verticalAlign=bottom;endArrow=block;shadow=0;strokeWidth=1;entryX=0;entryY=0.363;entryDx=0;entryDy=0;entryPerimeter=0;" edge="1" parent="1" target="9KfQvFGsd-rIjOBCiYMB-2">
          <mxGeometry relative="1" as="geometry">
            <mxPoint x="470" y="189" as="sourcePoint" />
            <mxPoint x="740" y="190" as="targetPoint" />
          </mxGeometry>
        </mxCell>
        <mxCell id="9KfQvFGsd-rIjOBCiYMB-4" value="new RTCPeerConnection" style="text;html=1;align=center;verticalAlign=middle;resizable=0;points=[];autosize=1;" vertex="1" parent="1">
          <mxGeometry x="545" y="170" width="150" height="20" as="geometry" />
        </mxCell>
        <mxCell id="9KfQvFGsd-rIjOBCiYMB-7" value="return this.pc" style="verticalAlign=bottom;endArrow=open;dashed=1;endSize=8;exitX=0;exitY=0.875;shadow=0;strokeWidth=1;exitDx=0;exitDy=0;exitPerimeter=0;" edge="1" parent="1" source="9KfQvFGsd-rIjOBCiYMB-2">
          <mxGeometry relative="1" as="geometry">
            <mxPoint x="470" y="229" as="targetPoint" />
            <mxPoint x="740" y="229.49999999999977" as="sourcePoint" />
          </mxGeometry>
        </mxCell>
        <mxCell id="9KfQvFGsd-rIjOBCiYMB-8" value="" style="verticalAlign=bottom;endArrow=block;shadow=0;strokeWidth=1;" edge="1" parent="1">
          <mxGeometry relative="1" as="geometry">
            <mxPoint x="470" y="271" as="sourcePoint" />
            <mxPoint x="760" y="271" as="targetPoint" />
          </mxGeometry>
        </mxCell>
        <mxCell id="9KfQvFGsd-rIjOBCiYMB-12" value="使用canvas downsampling track" style="text;html=1;align=center;verticalAlign=middle;resizable=0;points=[];autosize=1;" vertex="1" parent="1">
          <mxGeometry x="520" y="250" width="190" height="20" as="geometry" />
        </mxCell>
        <mxCell id="9KfQvFGsd-rIjOBCiYMB-15" value="return this._lowTrack" style="verticalAlign=bottom;endArrow=open;dashed=1;endSize=8;exitX=0;exitY=0.875;shadow=0;strokeWidth=1;exitDx=0;exitDy=0;exitPerimeter=0;" edge="1" parent="1">
          <mxGeometry relative="1" as="geometry">
            <mxPoint x="467.5" y="310" as="targetPoint" />
            <mxPoint x="762.5" y="311" as="sourcePoint" />
          </mxGeometry>
        </mxCell>
        <mxCell id="9KfQvFGsd-rIjOBCiYMB-18" value="createOffer, publish stream" style="text;html=1;align=center;verticalAlign=middle;resizable=0;points=[];autosize=1;" vertex="1" parent="1">
          <mxGeometry x="540" y="330" width="160" height="20" as="geometry" />
        </mxCell>
        <mxCell id="9KfQvFGsd-rIjOBCiYMB-20" value="return" style="verticalAlign=bottom;endArrow=open;dashed=1;endSize=8;exitX=0;exitY=0.875;shadow=0;strokeWidth=1;exitDx=0;exitDy=0;exitPerimeter=0;" edge="1" parent="1">
          <mxGeometry relative="1" as="geometry">
            <mxPoint x="467.5" y="380" as="targetPoint" />
            <mxPoint x="762.5" y="381" as="sourcePoint" />
          </mxGeometry>
        </mxCell>
        <mxCell id="9KfQvFGsd-rIjOBCiYMB-21" value="" style="endArrow=classic;html=1;" edge="1" parent="1">
          <mxGeometry width="50" height="50" relative="1" as="geometry">
            <mxPoint x="473" y="352" as="sourcePoint" />
            <mxPoint x="762.5" y="352" as="targetPoint" />
          </mxGeometry>
        </mxCell>
      </root>
    </mxGraphModel>
  </diagram>
</mxfile>
